<?xml version="1.0" encoding="utf-8" ?><svg xmlns="http://www.w3.org/2000/svg" xmlns:xlink="http://www.w3.org/1999/xlink" width="512" height="512" viewBox="0 0 512 512"><path fill="#D677C7" d="M248.966 32.1208C257.158 32.0646 265.067 32.0121 273.251 32.6739C276.977 32.8384 280.866 33.9147 284.52 34.2042C295.744 35.0938 305.944 38.6181 316.78 41.3426C329.651 44.5785 342.249 50.5143 353.952 56.7473C394.097 78.4075 426.102 112.546 445.13 154.004C449.538 163.713 452.642 174.518 456.127 184.638C457.792 189.906 458.667 195.408 459.773 200.786C464.44 223.485 464.816 247.104 461.204 269.981C460.733 272.965 459.861 276.011 459.201 278.983C458.242 283.301 457.43 287.711 456.117 291.942C451.906 303.884 448.354 316.411 443.003 327.893C439.849 334.565 436.368 341.078 432.573 347.407C429.903 351.835 427.326 355.455 424.811 360.099C417.059 355.148 410.029 349.407 402.482 344.21C395.615 339.481 385.911 333.933 380.082 328.257C379.911 328.09 379.378 327.578 379.297 327.363C379.033 326.655 390.682 307.617 391.866 304.998C394.013 300.252 396.304 295.394 398.155 290.533C400.663 283.946 403.863 272.744 405.016 265.69C406.377 257.357 406.563 246.699 406.523 238.247C406.482 229.506 406.29 220.567 404.873 211.926C404.215 207.914 403.049 203.902 402.011 199.97C401.086 196.469 400.177 192.939 398.925 189.538C397.954 186.9 396.725 184.341 395.624 181.754C393.986 177.907 392.428 173.919 390.394 170.26C389.341 168.366 387.973 166.668 386.888 164.795C384.885 161.336 383.36 157.691 381.14 154.332C379.374 151.658 377.118 149.296 375.072 146.834C370.225 141.001 365.4 135.063 359.972 129.747C356.155 126.008 350.718 121.911 346.37 118.723C342.894 116.173 339.589 113.418 335.92 111.141C332.223 108.846 328.369 107.171 324.478 105.266C321.782 103.946 319.239 102.32 316.494 101.099C313.807 99.9035 310.933 99.0712 308.169 98.0658C304.799 96.8397 301.452 95.3932 298.023 94.3533C294.531 93.2943 290.923 92.646 287.349 91.9356C277.858 90.0493 268.289 88.6314 258.579 88.7073C251.34 88.6487 243.16 89.1307 235.959 90.0355C232.77 90.4138 229.306 91.6417 226.155 92.0545C216.058 93.3779 206.972 97.6081 197.522 101.144C195.147 102.033 192.413 104.032 189.987 105.043C187.518 106.072 184.941 107.156 182.548 108.348C172.263 114.253 162.736 122.186 153.74 129.875C152.216 131.177 150.648 133.365 149.218 134.825C143.408 140.757 137.676 147.594 132.66 154.173C129.684 158.095 127.786 163.188 125.292 167.279C121.946 172.77 119.436 177.449 117.399 183.588C116.161 187.143 114 190.996 113.1 194.64C111.408 201.491 109.21 208.963 108.151 215.925C106.592 226.167 106.522 237.091 106.815 247.44C106.955 252.404 107.2 257.453 107.955 262.367C110.331 275.327 113.964 288.605 119.534 300.58C122.502 306.962 126.69 313.784 129.866 320.184C131.146 322.763 134.165 325.29 135.262 328.065C135.576 328.858 132.986 330.727 132.37 331.262C128.821 334.361 125.131 337.294 121.312 340.052C119.097 341.618 116.997 342.732 114.346 344.759C106.539 350.75 98.8929 357.557 90.5861 362.743C89.2897 363.553 83.4539 352.779 82.5804 351.498C73.7973 338.442 66.6733 324.344 61.3728 309.528C49.2094 275.251 44.8615 236.858 52.8023 201.168C53.5732 197.813 53.7965 193.865 54.7284 190.59C59.6933 173.139 65.2733 156.014 74.45 140.256C77.5484 134.936 80.2444 129.532 84.1124 124.627C85.5794 122.767 86.6932 119.712 88.273 117.816C98.546 104.572 110.039 91.5216 123.087 80.9569C127.047 77.75 130.615 74.3277 134.797 71.3862C151.536 59.6145 169.972 49.8891 189.219 42.9151C192.215 41.8314 195.845 41.4674 198.923 40.5375C215.165 35.4048 231.955 32.8956 248.966 32.1208ZM124.831 93.2939L127.924 107.014C128.478 109.391 128.842 111.729 129.683 114.012L130.069 115.077C127.067 114.253 124.09 113.315 121.091 112.534C116.841 111.427 112.76 110.603 108.639 109.044C107.351 110.831 105.732 112.558 104.61 114.176C106.69 120.113 112.283 126.856 115.716 132.177C117.435 134.841 123.069 145.044 125.202 146.258C126.824 144.783 130.922 139.86 132.261 138.01C131.046 136.347 130.703 135.579 129.754 133.747C128.91 132.195 125.707 126.906 125.977 125.728L126.425 125.497C131.189 127.095 137.239 128.068 142.21 128.607C141.423 126.316 137.587 112.373 137.86 110.715C139.65 110.431 145.531 114.744 147.275 116.011C148.565 116.955 149.845 117.912 151.115 118.881C154.745 115.459 156.542 112.856 159.695 109.563C154.558 106.799 150.809 104.546 145.967 101.297C140.762 97.8056 135.825 94.5762 131.081 90.3975C130.344 89.8047 129.572 88.8971 128.866 88.3778C127.448 90.6502 126.767 91.4225 124.831 93.2939ZM355.371 80.2148C357.96 81.2482 359.822 82.2594 362.001 84.0233C363.135 84.9413 364.39 86.3771 365.858 86.2586C367.465 85.0658 368.157 80.7617 368.803 78.6198C361.266 72.9492 357.613 70.0074 349.019 66.2959C347.337 71.2637 344.347 75.1732 342.103 79.8793C341.615 80.9029 341.021 81.9975 340.443 82.9775C336.932 88.0162 333.153 92.8939 329.457 97.7889C335.114 100.58 339.869 103.827 344.992 107.471C346.056 108.228 347.241 109.003 348.387 109.632C350.476 106.788 352.466 106.279 355.346 104.161C352.589 101.753 348.149 98.6586 344.933 96.8758L346.21 94.0749C346.992 93.2868 347.497 92.6457 348.707 92.6527C351.358 92.668 356.074 96.7435 357.817 98.5366C358.739 96.9063 361.784 92.913 363.079 91.4453C360.166 89.1371 355.916 86.601 352.444 85.1751C353.399 83.0243 353.815 82.0777 355.371 80.2148ZM394.977 320.759C398.121 323.378 399.464 324.266 401.896 327.534C403.002 325.47 406.627 318.534 407.808 316.747C409.762 317.453 410.861 317.937 412.727 318.864C411.946 322.822 409.879 325.378 407.675 328.74C409.632 330.453 412.602 332.659 414.71 334.225C416.87 330.8 418.024 326.963 420.04 323.518C420.585 322.586 423.096 323.392 423.86 323.609C424.352 323.885 425.285 324.333 425.359 324.926C425.721 327.86 421.299 334.996 419.286 337.02C423.057 337.69 424.3 337.941 427.822 339.253C432.512 332.558 435.035 324.703 438.899 317.844C432.239 316.031 429.154 314.439 423.263 311.027C417.551 307.719 411.04 305.254 405.694 301.192C405.475 303.854 399.829 313.143 398.358 316.11C397.978 316.877 395.599 319.959 394.977 320.759ZM239.704 43.6021L239.772 43.9441C240.973 50.1868 239.305 78.6482 240.798 81.6661C244.165 81.5259 250.643 80.3705 253.589 80.7192C252.975 76.4019 253.438 71.9126 252.835 67.3224C255.242 67.4742 257.419 67.471 259.822 67.4695C262.669 67.6022 265.091 67.8352 267.955 67.7064C266.445 64.863 266.124 61.5437 265.812 58.3631C264.329 58.8663 253.925 60.0475 253.049 58.5767C252.668 57.9378 252.9 53.2668 252.944 52.0406C258.41 52.3352 263.45 51.912 268.882 53.1279C268.641 50.8683 267.962 45.1433 267.947 43.1653C264.366 42.9013 254.715 42.8191 251.163 43.0994C247.352 43.5075 243.535 43.5267 239.704 43.6021ZM96.793 230.505C85.8312 224.808 72.6463 217.045 61.2565 213.277C60.3124 226.213 60.0512 223.024 71.4363 229.375C56.6416 235.406 60.0507 231.167 59.1214 246.366C62.2372 243.977 78.23 236.695 82.0513 236.065C85.0102 236.69 93.228 241.927 95.7118 243.696C95.9943 241.388 96.2731 239.173 96.4263 236.851C96.5578 234.859 96.4654 232.424 96.793 230.505ZM62.9825 202.338C66.6378 204.041 69.2196 205.456 73.1031 206.804C73.4897 204.674 74.1787 199.284 75.344 197.852C77.5453 197.02 87.8804 201.355 91.0617 202.267C93.8269 203.095 97.4442 204.111 100.095 205.154C101.334 202.924 104.157 195.601 103.786 193.28C102.651 192.009 82.1476 188.587 79.4621 187.106C78.1694 186.394 80.3604 180.365 80.8406 179.016C78.695 177.282 76.6196 176.423 74.2865 174.952C73.5619 174.496 71.5456 172.992 71.0455 172.77C68.8893 180.671 67.5425 188.572 64.7701 196.268C64.0687 198.215 63.7858 200.348 62.9825 202.338ZM418.695 148.484C421.212 151.311 422.223 152.912 423.409 156.553C418.857 158.28 414.878 160.207 410.477 162.253C406.9 163.916 402.789 165.251 399.405 167.326C401.027 171.616 403.241 174.872 404.611 178.34C407.28 176.391 408.907 176.571 411.558 174.802C413.95 173.316 416.466 171.759 419.094 170.755C422.052 169.626 424.504 168.849 427.306 167.318C428.66 168.941 431.02 173.325 431.88 173.343C435.083 173.409 439.139 172.018 442.419 171.602C438.307 165.19 433.042 152.07 429.345 144.9C429.179 144.835 429.013 144.77 428.847 144.705L428.449 144.802C424.576 145.79 422.278 147.067 418.695 148.484ZM95.3236 305.699C91.0073 303.895 86.4616 302.015 81.7984 302.433C69.2078 316.177 80.4776 325.727 85.2906 338.935C88.9743 336.017 89.5118 336.324 93.1788 334.339C101.161 330.16 109.866 325.107 118.38 322.615C116.758 319.316 115.141 315.889 113.405 312.665C111.726 313.975 105.373 316.66 103.228 316.735L102.825 316.461C103.082 314.709 108.412 303.738 109.744 302.212C106.89 299.068 105.806 295.655 104.309 293.951C102.595 297.266 98.3775 303.596 95.3236 305.699ZM395.736 151.837C399.091 151.785 401.975 150.522 404.717 148.626L404.86 148.287C408.869 138.719 405.742 134.03 419.23 137.238C418.98 133.755 418.742 130.419 418.339 126.95C415.139 125.488 411.368 124.059 407.82 123.847C396.342 125.211 402.11 137.209 392.829 139.845C390.916 140.388 387.27 138.509 385.389 137.596C386.254 140.36 386.801 146.705 386.917 149.624C389.678 150.542 392.862 151.767 395.736 151.837ZM450.733 202.006C450.045 199.523 449.246 196.62 448.914 194.074C438.751 192.447 428.624 191.364 418.562 189.101C415.507 188.413 411.874 188.436 408.849 187.42C409.536 191.362 410.894 195.211 411.434 199.079C414.014 199.016 416.373 199.191 418.747 200.338C419.852 203.044 422.151 209.248 421.32 212.181C420.719 214.299 417.531 213.893 416.142 215.37C415.234 217.31 418.181 222.76 418.63 225.092C418.813 226.044 419.294 227.639 419.557 228.599C423.702 226.26 424.708 224.594 428.185 221.419C429.953 219.806 431.787 218.403 433.489 216.657C435.198 215.06 437.76 213.315 439.701 211.717C443.447 208.633 447.077 205.096 450.733 202.006ZM63.8968 283.121C64.5391 286.74 65.7609 292.278 66.0358 295.715C67.2882 295.35 68.6275 294.985 69.858 294.573C73.7566 293.894 77.744 292.391 81.531 291.765C88.3348 290.641 95.5131 289.121 102.318 288.187C101.912 284.4 101.304 281.157 100.807 277.496C97.7106 277.362 89.5087 277.856 86.5093 278.599C83.8701 264.033 85.409 266.579 98.6298 265.083C98.2218 263.089 96.7752 254.759 95.9828 253.652C95.06 253.313 94.2895 253.437 93.2857 253.569C86.8393 254.941 81.0555 256.145 74.5156 257.071C69.6301 257.764 65.6016 258.837 60.5229 259.184C60.9246 260.871 61.9981 269.431 62.1015 271.326C66.059 270.24 70.2944 269.305 74.4087 269.161C77.2614 284.585 76.3973 278.413 63.8968 283.121ZM162.812 106.652C165.387 106.705 169.966 107.529 171.783 105.601C178.06 98.9399 175.251 87.5723 165.837 86.0649C162.937 85.6005 160.117 82.9403 160.045 80.0263C159.777 77.6007 162.104 75.338 161.884 73.73C161.218 73.3857 160.503 73.5655 159.719 73.6386L151.244 74.0472C148.461 79.5927 145.364 88.5561 152.772 92.1879C157.993 94.7474 165.572 96.1562 162.125 104.009C161.7 104.971 161.169 105.517 160.448 106.286L160.6 106.628C161.596 106.743 161.805 106.734 162.812 106.652ZM430.766 293.307C433.412 296.536 434.301 300.817 434.645 304.901C437.856 304.434 442.153 304.004 445.044 302.673C444.404 294.683 442.73 286.919 436.37 281.502C432.897 278.544 429.915 278.405 425.57 278.875C417.45 279.417 412.413 288.141 407.395 293.396C409.974 295.86 412.999 297.81 415.863 299.85C419.431 296.041 425 287.966 430.766 293.307ZM453.117 258.718C451.198 258.701 438.934 259.079 437.606 258.786C437.35 257.408 441.946 254.515 443.062 253.466C446.946 249.814 451.335 245.593 454.294 241.187C454.842 240.331 455.045 235.322 455.056 234.135C447.391 233.786 439.728 233.648 432.074 233.421C427.64 233.29 422.789 232.258 418.136 232.021C418.256 234.234 417.042 241.027 418.229 241.826C420.593 243.42 435.076 243.745 436.609 245.338C436.147 246.234 434.266 246.72 433.503 247.542C428.375 253.073 421.298 257.018 416.426 262.548C415.715 263.354 415.249 268.497 415.098 269.867C426.948 270.492 437.959 270.866 449.81 272.059C450.734 272.114 450.95 272.308 451.509 271.884C452.36 268.431 452.439 262.655 453.117 258.718ZM372.121 128.941C373.595 130.656 378.88 137.399 380.451 137.553C382.17 135.646 385.128 132.033 386.983 130.513C391.07 127.165 395.472 123.984 399.662 120.697C402.924 118.137 404.965 117.21 408.064 114.167C406.133 111.651 402.15 106.543 399.6 104.621C396.848 107.158 393.451 109.745 390.808 112.46C384.688 118.746 379.272 123.853 372.121 128.941ZM375.601 89.807C373.677 90.2474 370.565 92.1862 369.684 93.9612C366.307 100.761 371.103 106.355 362.564 110.137L356.76 108.952C359.884 116.369 360.099 122.941 369.945 120.468C385.868 116.432 370.891 98.4617 389.121 100.705C384.728 91.2438 387.352 89.5426 375.601 89.807ZM91.8158 132.352C90.542 135.911 86.068 140.819 86.8011 142.944C89.2769 144.89 96.392 146.156 96.8549 148.887C96.5559 150.352 92.6155 157.15 91.9882 157.64C90.2772 158.235 82.2511 153.672 80.1893 152.621C79.0657 156.927 76.4529 159.929 74.6115 164.025C78.8792 166.298 82.1341 168.127 86.7613 169.954C92.774 172.328 99.1175 176.19 104.922 179.184C105.75 179.612 106.192 180.274 107.128 180.308L107.477 179.856C109.186 177.683 111.509 172.962 112.402 170.301C108.394 168.091 105.311 166.182 101.653 163.418C102.83 161.34 105.687 154.507 106.976 153.903C108.148 153.877 116.521 158.803 118.31 159.804C119.944 156.784 122.478 152.631 124.328 149.588C119.92 147.374 115.702 144.815 111.141 142.775C107.964 141.355 104.696 138.9 101.476 137.46C99.1886 136.331 93.9546 133.037 91.8158 132.352ZM304.597 49.0864C304.12 54.5162 301.201 62.4748 299.862 67.8032C298.262 74.1681 297.136 79.3255 294.875 85.6082C297.374 85.7079 301.808 86.6249 304.153 87.5661C306.814 83.5197 306.224 81.1191 309.425 77.2374C311.551 80.5502 314.052 91.173 316.357 92.4529L318.058 92.5749C320.185 92.7978 323.187 93.0054 325.166 93.5999C324.107 91.1044 321.234 81.157 322.459 79.7336C326.147 75.4479 336.65 75.3574 333.279 66.4858C331.494 61.7869 328.14 57.1455 323.013 55.165C317.212 52.9235 310.543 51.2388 304.597 49.0864ZM213.513 48.0192C202.991 48.4216 194.802 57.3035 195.254 67.8239C195.705 78.3444 204.626 86.4917 215.144 85.9906C225.592 85.4929 233.674 76.6444 233.225 66.1935C232.777 55.7427 223.966 47.6195 213.513 48.0192Z"/><path fill="#D677C7" d="M212.874 57.8044C218.833 57.4181 221.473 60.1728 223.669 65.1725C222.148 70.1144 221.67 73.1117 216.35 74.5192C213.981 74.692 211.396 74.7108 209.281 73.5064C205.465 71.3346 203.968 65.8639 206.392 62.1264C208.052 59.5676 210.023 58.4999 212.874 57.8044Z"/><path fill="#D677C7" d="M313.022 61.1699C315.313 61.2044 318.477 63.4758 319.554 65.4733C321.381 68.8615 318.371 70.5918 315.836 71.994C313.85 72.7049 312.234 72.9859 310.162 73.2537C309.921 69.8075 311.707 64.3445 313.022 61.1699Z"/><path fill="#D677C7" d="M88.4583 314.501C89.6891 314.456 91.1916 314.463 92.2969 314.98C93.8475 315.705 98.3873 316.931 98.8406 318.668C98.1299 320.119 96.1378 320.648 94.5906 321.286C88.2406 324.873 85.0701 326.114 86.8231 317.421C87.1251 315.923 87.3707 315.509 88.4583 314.501Z"/><path fill="#D677C7" d="M428.897 200.473C432.536 201.654 432.668 201.769 436.736 202.104C435.624 203.807 435.169 204.144 433.598 205.329C432.692 206.137 430.936 208.069 429.747 207.853C428.732 206.587 428.121 201.863 428.897 200.473Z"/><path fill="#D677C7" d="M335.309 171.302C341.339 171.181 343.149 175.142 341.631 180.496C340.452 184.653 335.74 189.592 332.005 191.63L329.527 189.98L329.657 191.581C329.72 192.458 329.733 193.582 329.101 194.278C322.194 201.871 316.104 209.763 308.713 216.933C304.316 221.199 300.339 227.16 296.191 231.67L276.658 253.235C274.221 255.939 271.821 258.125 269.309 261.037C271.072 263.568 273.486 265.736 275.402 268.131C280.419 274.402 286.099 279.81 291.65 285.592C295.058 289.142 298.014 293.102 301.34 296.658L323.6 320.579C325.482 322.612 327.544 324.391 329.427 326.388C330.453 327.475 331.127 329.128 332.237 330.402C339.253 324.382 342.076 327.759 348.976 331.688C350.21 332.227 352.772 335.227 352.855 336.488C352.964 338.152 350.753 341.016 349.955 342.473C348.82 344.549 347.144 346.474 349.312 348.538C350.381 348.686 350.184 348.31 350.918 347.381C353.281 344.39 355.112 338.505 358.3 336.63C359.38 335.995 362.709 334.692 363.958 334.186C368.079 335.921 370.099 338.182 373.138 341.282C374.252 342.418 377.674 344.698 377.435 346.441C376.536 352.391 370.803 357.203 367.32 361.873C366.404 363.101 364.554 363.649 364.712 365.23C365.472 366.053 365.024 365.783 366.104 366.073C366.969 365.666 376.648 353.9 378.575 352.043C379.467 351.83 380.523 351.65 381.436 351.47C384.1 352.43 384.574 353.395 386.277 354.946C394.067 362.037 397.808 368.514 387.28 375.925C386.414 376.535 384.149 380.237 382.92 380.984C382.432 381.281 381.449 382.214 381.241 382.814C381.421 383.028 382.314 383.925 382.606 383.756C386.268 381.597 391.067 377.463 395.485 377.342C398.47 377.26 403.298 390.001 403.298 391.909C403.298 393.493 397.694 397.633 395.976 398.625C398.136 402.064 402.458 405.29 404.934 408.338C411.161 416.007 418.04 422.883 424.913 429.941C430.143 435.31 418.831 444.212 414.06 444.581C414.498 444.765 396.221 424.882 394.798 423.346C390.406 418.545 386.157 413.617 382.054 408.568C381.701 408.655 380.414 408.967 380.104 408.888C376.836 408.062 369.804 405.218 367.76 402.717C365.968 400.525 369.376 397.83 369.68 395.5C368.787 392.631 366.63 394.704 365.444 395.99C360.59 401.319 360.399 400.849 354.862 397.499C342.526 390.034 349.678 387.052 355.962 380.109C354.93 378.761 354.293 377.779 353.391 376.339C352.094 377.385 350.788 378.42 349.475 379.445C346.205 375.824 341.679 373.201 341.095 368.049C340.905 366.367 341.406 364.671 341.223 362.815C338.912 359.781 337.963 364.57 334.739 362.032C331.905 359.766 329.4 356.977 326.958 354.289C323.717 350.721 323.609 350.296 326.25 346.686C322.447 342.945 318.621 338.193 315.076 334.182L294.861 311.506C290.139 306.154 284.895 301.162 280.162 295.801C278.088 293.769 276.286 290.455 274.248 288.518C269.086 283.611 263.98 276.78 258.861 272.095C253.99 279.006 247.883 284.438 242.418 290.863C232.929 302.12 222.52 312.666 212.931 323.817C206.082 331.783 198.736 339.287 191.759 347.078C192.333 348.423 193.224 349.779 193.989 351.042C193.321 352.334 192.821 353.305 192.033 354.532C188.204 359.7 187.772 361.176 181.824 363.885C180.257 363.021 179.807 362.751 178.425 361.61C177.386 362.768 177.077 363.253 176.276 364.528C176.804 365.991 177.608 367.592 178.28 369.021C177.034 372.13 172.4 378.98 169.853 380.526C168.59 380.623 166.074 378.148 164.737 377.16C164.02 378.231 163.258 379.52 162.569 380.627C164.027 382.414 165.806 384.312 167.537 385.84C176.737 393.957 165.161 399.244 158.135 402.162C156.129 400.528 151.171 395.97 149.619 394.099C149.107 394.79 148.618 395.572 148.145 396.298C152.038 402.774 154.395 403.419 145.996 407.997C143.791 409.199 141.658 410.489 139.322 411.608C138.244 410.607 137.565 409.906 136.586 408.815C134.865 409.67 128.125 418.261 126.49 420.273C122.963 424.612 118.807 428.245 115.073 432.484C111.752 436.069 108.588 439.811 105.289 443.411C103.343 445.644 99.0174 442.518 97.496 441.116C94.5477 438.399 90.127 434.109 93.6312 430.224C96.5066 427.037 99.5537 424.119 102.406 421.041L121.538 400.1C120.397 399.201 115.613 395.721 115.906 394.524C116.766 391.018 119.487 382.529 122.056 380.209C125.79 379.273 132.201 383.059 135.418 384.95C136.044 384.463 136.735 384.019 137.395 383.574C133.714 380.646 130.408 378.218 127.56 374.362C125.955 372.189 124.659 369.82 125.162 367.028C125.876 363.067 130.056 357.827 133.396 355.678C138.796 352.204 141.742 355.153 144.937 359.278C146.02 360.678 150.463 366.547 151.969 366.893L152.377 366.572C152.561 363.171 140.653 352.923 141.237 348.222C141.621 345.132 149.329 339.314 151.724 336.841C154.413 334.065 159.948 338.417 162.03 340.487C163.876 342.323 166.337 348.86 168.411 349.34C173.695 347.347 163.672 339.997 165.497 337.263C168.715 332.442 173.372 330.104 178.57 328.458C181.542 329.192 183.026 329.886 185.785 331.257C186.663 330.259 187.516 328.995 188.338 327.923C192.034 323.111 196.456 319.028 200.552 314.593L223.993 289.174C232.469 280.1 241.076 270.302 249.631 261.36C245.665 257.311 241.033 252.888 237.577 248.494C231.729 241.058 225.241 234.546 218.785 227.671C216.046 224.753 213.633 221.315 210.937 218.334L195.441 201.455C193.522 199.325 191.071 196.569 189.367 194.224C189.025 193.753 189.113 192.203 188.613 191.229C188.317 191.279 187.029 191.489 186.837 191.442C184.985 190.985 182.189 188.288 181.015 186.893C178.841 184.274 176.251 180.97 176.554 177.384C176.847 173.913 179.987 170.877 183.579 171.41C187.37 171.974 191.083 175.055 193.406 178.026C195.968 181.302 195.761 181.213 195.266 185.081C196.48 185.385 198.372 185.765 199.25 186.582C203.383 190.397 207.33 194.409 211.076 198.605C213.245 201.019 215.146 203.481 217.419 205.955C222.608 211.603 228.065 216.84 233.263 222.473C234.412 223.719 234.904 225.132 236.141 226.455C242.442 233.196 249.484 239.501 255.313 246.607C256.516 248.074 257.89 249.547 258.845 251.17C264.292 245.049 270.399 239.246 275.879 233.242C290.307 217.437 304.496 201.151 319.692 186.08C320.744 185.036 321.871 185.192 323.279 185.151C323.395 184.53 322.785 183.522 322.468 182.819C324.017 177.225 329.711 172.431 335.309 171.302Z"/><path fill="#D677C7" d="M196.205 354.543C198.446 354.43 200.248 354.765 202.345 355.505C206.41 356.939 209.959 359.308 213.827 361.145C216.948 362.627 221.056 363.383 223.771 365.524C226.358 367.565 227.452 370.718 228.44 373.728C229.343 376.476 230.666 379.381 231.006 382.265C231.498 386.438 229.627 392.334 228.853 396.537C228.349 399.272 228.007 402.036 227.563 404.782C227.003 408.253 225.756 412.812 226.482 416.307C227.504 421.226 230.567 425.746 232.804 430.172C233.954 432.448 234.892 434.828 236.064 437.095C237.714 440.286 239.642 443.414 241.481 446.505C243.005 449.068 245.103 451.481 246.322 454.189C246.655 454.928 246.977 455.85 246.658 456.64C245.652 459.129 231.136 467.058 228.233 468.512C225.235 470.013 222.069 471.138 219.084 472.68C214.409 475.094 209.939 478.029 205.07 480.047C203.546 477.953 202.171 473.763 200.933 471.266C196.563 462.451 193.955 454.492 188.393 446.332C187.147 444.854 185.579 442.962 183.76 442.073C175.71 438.138 166.37 436.704 157.864 433.814C155.306 432.945 151.364 432.476 149.407 430.514C147.335 428.524 143.94 422.821 144.268 419.823C145.197 411.328 156.923 408.942 163.136 407.705C171.18 406.103 177.179 404.904 184.845 405.018C186.415 401.731 189.364 397.867 191.327 394.71C194.383 389.796 197.435 384.773 201.419 380.568C201.677 380.295 201.572 380.271 201.512 379.868C198.835 380.142 190.647 390.725 187.746 392.335C185.438 393.617 183.209 393.933 180.678 394.777C177.509 392.528 172.418 386.672 170.766 383.219C169.489 380.55 179 374.261 180.613 372.477C183.783 368.97 186.432 364.838 189.368 361.124C191.799 358.05 192.224 355.516 196.205 354.543Z"/><path fill="#D677C7" d="M320.878 353.824C327.422 354.221 332.244 365.214 336.701 369.519C340.806 373.484 344.935 377.291 348.958 381.35C347.355 384.527 345.403 385.602 343.206 388.198C342.663 388.845 341.927 390.405 341.516 391.004C335.325 400.018 322.284 381.144 316.812 378.303C316.739 378.26 316.666 378.218 316.593 378.175C317.408 379.503 318.516 380.947 319.481 382.182C324.778 388.965 329.411 396.64 334.712 403.388C337.906 403.955 341.235 404.276 344.456 404.849C355.623 406.834 367.505 405.389 374.924 415.588C374.975 416.002 375.02 416.417 375.058 416.832C375.294 419.369 374.869 421.924 373.823 424.247C370.66 431.212 365.91 430.826 359.55 433.031C352.251 435.561 344.138 437.291 336.904 439.922C335.651 440.378 334.425 441.936 333.565 442.967C327.667 449.734 323.456 460.413 320.143 468.66C318.928 471.685 316.972 476.092 316.282 479.147C306.846 475.765 297.062 470.102 287.905 465.784C285.516 464.658 282.704 463.369 280.474 462.016C277.868 460.433 275.327 458.301 272.764 456.534C276.794 448.644 293.725 420.577 293.486 413.757C293.376 410.616 292.541 407.275 291.939 404.183C291.31 400.952 290.833 397.693 290.202 394.462C289.698 391.885 289.05 389.323 288.673 386.723C288.386 384.748 288.219 382.724 288.442 380.734C288.8 377.555 291.519 368.852 293.423 366.462C294.136 365.566 295.159 364.944 296.149 364.397C298.35 363.181 300.82 362.428 303.079 361.313C306.634 359.558 310.076 357.407 313.742 355.902C315.993 354.978 318.449 354.091 320.878 353.824Z"/></svg>